<?xml version="1.0" encoding="UTF-8" standalone="no"?>
<!DOCTYPE svg PUBLIC "-//W3C//DTD SVG 1.1//EN"
 "http://www.w3.org/Graphics/SVG/1.1/DTD/svg11.dtd">
<!-- Generated by graphviz version 2.40.1 (20161225.0304)
 -->
<!-- Title: G Pages: 1 -->
<svg width="317pt" height="410pt"
 viewBox="0.00 0.00 316.50 410.00" xmlns="http://www.w3.org/2000/svg" xmlns:xlink="http://www.w3.org/1999/xlink">
<g id="graph0" class="graph" transform="scale(1 1) rotate(0) translate(4 406)">
<title>G</title>
<polygon fill="#ffffff" stroke="transparent" points="-4,4 -4,-406 312.5,-406 312.5,4 -4,4"/>
<!-- A0 -->
<g id="node1" class="node">
<title>A0</title>
<polygon fill="none" stroke="#000000" points="34.5,-290 34.5,-322 114.5,-322 114.5,-290 34.5,-290"/>
<text text-anchor="start" x="44.356" y="-303" font-family="Helvetica,sans-Serif" font-size="10.00" fill="#000000">+I:ICustomer </text>
<polygon fill="none" stroke="#000000" points="34.5,-258 34.5,-290 114.5,-290 114.5,-258 34.5,-258"/>
<text text-anchor="start" x="46.721" y="-271" font-family="Helvetica,sans-Serif" font-size="10.00" fill="#000000"> Greet():void</text>
</g>
<!-- A1 -->
<g id="node2" class="node">
<title>A1</title>
<polygon fill="none" stroke="#000000" points=".5,-92 .5,-124 149.5,-124 149.5,-92 .5,-92"/>
<text text-anchor="start" x="49.0245" y="-105" font-family="Helvetica,sans-Serif" font-size="10.00" fill="#000000">+Customer </text>
<polygon fill="none" stroke="#000000" points=".5,-48 .5,-92 149.5,-92 149.5,-48 .5,-48"/>
<text text-anchor="start" x="44.576" y="-73" font-family="Helvetica,sans-Serif" font-size="10.00" fill="#000000"> +name:string</text>
<text text-anchor="start" x="17.5015" y="-61" font-family="Helvetica,sans-Serif" font-size="10.00" fill="#000000">&#45;creditCardNumber:string </text>
<polygon fill="none" stroke="#000000" points=".5,-4 .5,-48 149.5,-48 149.5,-4 .5,-4"/>
<text text-anchor="start" x="10.138" y="-29" font-family="Helvetica,sans-Serif" font-size="10.00" fill="#000000"> +CreditCardNumber:string:w</text>
<text text-anchor="start" x="49.02" y="-17" font-family="Helvetica,sans-Serif" font-size="10.00" fill="#000000">+Greet:void</text>
</g>
<!-- A0&#45;&gt;A1 -->
<g id="edge1" class="edge">
<title>A0&#45;&gt;A1</title>
<path fill="none" stroke="#000000" d="M74.5,-247.342C74.5,-212.6118 74.5,-163.1623 74.5,-124.369"/>
<polygon fill="none" stroke="#000000" points="71.0001,-247.6197 74.5,-257.6197 78.0001,-247.6197 71.0001,-247.6197"/>
</g>
<!-- A2 -->
<g id="node3" class="node">
<title>A2</title>
<polygon fill="none" stroke="#000000" points="166.5,-370 166.5,-402 308.5,-402 308.5,-370 166.5,-370"/>
<text text-anchor="start" x="209.0255" y="-383" font-family="Helvetica,sans-Serif" font-size="10.00" fill="#000000">+A:HotDrink </text>
<polygon fill="none" stroke="#000000" points="166.5,-254 166.5,-370 308.5,-370 308.5,-254 166.5,-254"/>
<text text-anchor="start" x="207.6265" y="-351" font-family="Helvetica,sans-Serif" font-size="10.00" fill="#000000"> +instant:bool</text>
<text text-anchor="start" x="214.8595" y="-327" font-family="Helvetica,sans-Serif" font-size="10.00" fill="#000000">+milk:bool</text>
<text text-anchor="start" x="212.4945" y="-303" font-family="Helvetica,sans-Serif" font-size="10.00" fill="#000000">&#45;sugar:byte</text>
<text text-anchor="start" x="208.186" y="-291" font-family="Helvetica,sans-Serif" font-size="10.00" fill="#000000">+brand:string</text>
<text text-anchor="start" x="210.69" y="-279" font-family="Helvetica,sans-Serif" font-size="10.00" fill="#000000"> +size:string</text>
<text text-anchor="start" x="189.578" y="-267" font-family="Helvetica,sans-Serif" font-size="10.00" fill="#000000">+customer:Customer </text>
<polygon fill="none" stroke="#000000" points="166.5,-210 166.5,-254 308.5,-254 308.5,-210 166.5,-210"/>
<text text-anchor="start" x="176.2315" y="-235" font-family="Helvetica,sans-Serif" font-size="10.00" fill="#000000"> +AddSugar(amount:byte):v</text>
<text text-anchor="start" x="199.298" y="-223" font-family="Helvetica,sans-Serif" font-size="10.00" fill="#000000"> +Steam():void:a </text>
<polygon fill="none" stroke="#000000" points="166.5,-178 166.5,-210 308.5,-210 308.5,-178 166.5,-178"/>
<text text-anchor="start" x="203.4675" y="-191" font-family="Helvetica,sans-Serif" font-size="10.00" fill="#000000"> +(brand:string)</text>
</g>
<!-- A3 -->
<g id="node4" class="node">
<title>A3</title>
<polygon fill="none" stroke="#000000" points="167.5,-96 167.5,-128 308.5,-128 308.5,-96 167.5,-96"/>
<text text-anchor="start" x="204.5165" y="-109" font-family="Helvetica,sans-Serif" font-size="10.00" fill="#000000">+CupOfCoffee </text>
<polygon fill="none" stroke="#000000" points="167.5,-64 167.5,-96 308.5,-96 308.5,-64 167.5,-64"/>
<text text-anchor="start" x="196.458" y="-77" font-family="Helvetica,sans-Serif" font-size="10.00" fill="#000000"> +beanType:string </text>
<polygon fill="none" stroke="#000000" points="167.5,-32 167.5,-64 308.5,-64 308.5,-32 167.5,-32"/>
<text text-anchor="start" x="211.7455" y="-45" font-family="Helvetica,sans-Serif" font-size="10.00" fill="#000000">+Steam():o </text>
<polygon fill="none" stroke="#000000" points="167.5,0 167.5,-32 308.5,-32 308.5,0 167.5,0"/>
<text text-anchor="start" x="177.0175" y="-13" font-family="Helvetica,sans-Serif" font-size="10.00" fill="#000000">+(brand:string):base(brand)</text>
</g>
<!-- A2&#45;&gt;A3 -->
<g id="edge2" class="edge">
<title>A2&#45;&gt;A3</title>
<path fill="none" stroke="#000000" stroke-dasharray="5,2" d="M237.5,-167.9858C237.5,-154.2697 237.5,-140.7318 237.5,-128.1875"/>
<polygon fill="#000000" stroke="#000000" points="237.5,-177.9932 233.0001,-167.9931 237.5,-172.9932 237.5001,-167.9932 237.5001,-167.9932 237.5001,-167.9932 237.5,-172.9932 242.0001,-167.9932 237.5,-177.9932 237.5,-177.9932"/>
</g>
</g>
</svg>
